<?xml version="1.0" encoding="UTF-8" standalone="no"?>
<!-- Generator: Adobe Illustrator 16.0.0, SVG Export Plug-In . SVG Version: 6.00 Build 0)  -->

<svg
   xmlns:dc="http://purl.org/dc/elements/1.1/"
   xmlns:cc="http://creativecommons.org/ns#"
   xmlns:rdf="http://www.w3.org/1999/02/22-rdf-syntax-ns#"
   xmlns:svg="http://www.w3.org/2000/svg"
   xmlns="http://www.w3.org/2000/svg"
   xmlns:sodipodi="http://sodipodi.sourceforge.net/DTD/sodipodi-0.dtd"
   xmlns:inkscape="http://www.inkscape.org/namespaces/inkscape"
   version="1.1"
   id="Layer_1"
   x="0px"
   y="0px"
   width="100px"
   height="64.374px"
   viewBox="0 0 100 64.374"
   enable-background="new 0 0 100 64.374"
   xml:space="preserve"
   inkscape:version="0.48.2 r9819"
   sodipodi:docname="velib.svg"
   inkscape:export-filename="/Users/pierre-emmanueboiteau/Desktop/velib-success.png"
   inkscape:export-xdpi="90"
   inkscape:export-ydpi="90"><metadata
   id="metadata9"><rdf:RDF><cc:Work
       rdf:about=""><dc:format>image/svg+xml</dc:format><dc:type
         rdf:resource="http://purl.org/dc/dcmitype/StillImage" /><dc:title></dc:title></cc:Work></rdf:RDF></metadata><defs
   id="defs7" /><sodipodi:namedview
   pagecolor="#ffffff"
   bordercolor="#666666"
   borderopacity="1"
   objecttolerance="10"
   gridtolerance="10"
   guidetolerance="10"
   inkscape:pageopacity="0"
   inkscape:pageshadow="2"
   inkscape:window-width="1280"
   inkscape:window-height="696"
   id="namedview5"
   showgrid="false"
   inkscape:zoom="5.1846149"
   inkscape:cx="63.55499"
   inkscape:cy="21.209299"
   inkscape:window-x="0"
   inkscape:window-y="0"
   inkscape:window-maximized="0"
   inkscape:current-layer="g5559" />

<path
   sodipodi:type="arc"
   style="fill:none"
   id="path5190"
   sodipodi:cx="50.735439"
   sodipodi:cy="33.005314"
   sodipodi:rx="25.776876"
   sodipodi:ry="21.68531"
   d="m 76.512316,33.005314 a 25.776876,21.68531 0 1 1 -0.01268,-0.68012 l -25.764196,0.68012 z"
   sodipodi:start="0"
   sodipodi:end="6.251817" /><path
   sodipodi:type="arc"
   style="fill:none"
   id="path5192"
   sodipodi:cx="34.232784"
   sodipodi:cy="21.412539"
   sodipodi:rx="10.638077"
   sodipodi:ry="6.5465083"
   d="m 44.870861,21.412539 a 10.638077,6.5465083 0 1 1 -0.0052,-0.20532 l -10.632844,0.20532 z"
   sodipodi:start="0"
   sodipodi:end="6.251817" /><path
   sodipodi:type="arc"
   style="fill:none"
   id="path5194"
   sodipodi:cx="17.661934"
   sodipodi:cy="15.616151"
   sodipodi:rx="7.8421717"
   sodipodi:ry="5.5236168"
   d="m 25.504106,15.616151 a 7.8421717,5.5236168 0 1 1 -0.0039,-0.173238 l -7.838314,0.173238 z"
   sodipodi:start="0"
   sodipodi:end="6.251817" /><g
   id="g5559"
   transform="matrix(1.3146981,0,0,1.3627612,-14.403327,-15.383055)"><path
     style="fill:#1f8dd6;fill-opacity:1"
     inkscape:connector-curvature="0"
     id="path3"
     d="m 61.042574,29.930775 c -0.554212,0 -1.093465,0.07076 -1.612007,0.200419 l -0.893258,-3.060943 c 0.239327,0.08517 0.516241,0.136438 0.84263,0.136438 h 2.441215 c 1.178993,0 1.794954,-1.091499 1.794954,-2.169863 v -2.799083 c 0,-0.430075 -0.315652,-0.778796 -0.705325,-0.778796 -0.388523,0 -0.704558,0.348721 -0.704558,0.778796 v 2.799083 c 0,0.143218 -0.02762,0.611427 -0.385071,0.611427 h -2.441215 c -0.574538,0 -0.746746,-0.233046 -0.841096,-0.609731 -0.09282,-0.373297 -0.416138,-0.605918 -0.754417,-0.565665 -0.184865,-0.727524 -0.07095,-1.054211 0.10202,-1.523268 0.120431,-0.327534 0.256203,-0.698712 0.299159,-1.201665 0.125417,-1.503777 -0.860274,-2.358417 -1.5679,-2.463076 -0.197521,-0.02881 -1.574419,-0.28601 -2.453103,-0.451684 -0.383537,-0.07457 -0.747898,0.212283 -0.813099,0.636426 -0.06674,0.424141 0.192536,0.82625 0.576456,0.89913 0.225904,0.04322 2.217996,0.418634 2.482253,0.455921 0.0035,0.0017 0.424575,0.137285 0.37088,0.779642 -0.02301,0.273723 -0.101254,0.4877 -0.200973,0.759304 -0.176044,0.479226 -0.385071,1.052517 -0.265791,1.955037 -0.12465,-0.0068 -0.251217,0.0072 -0.376634,0.05212 -0.555746,0.198301 -0.860658,0.856336 -0.681545,1.470727 l 0.151113,0.516513 -4.521519,7.786251 c -0.466381,0.727101 -1.032866,1.205056 -1.578639,1.523268 l 0.463313,-1.035568 h 0.431479 c 0.259271,0 0.4706,-0.231774 0.4706,-0.519055 0,-0.286857 -0.211329,-0.519902 -0.4706,-0.519902 h -1.490042 c -0.259655,0 -0.470217,0.233045 -0.470217,0.519902 0,0.287281 0.210179,0.519055 0.470217,0.519055 h 0.220918 l -0.664671,1.484286 c -0.507035,0.149996 -0.889039,0.172877 -0.976101,0.174996 l -0.711078,-0.0356 -3.050271,-8.993849 h 1.20469 c 0.552677,0 1.001032,-0.495327 1.001032,-1.105905 0,-0.610578 -0.447972,-0.696594 -1.001032,-0.696594 h -3.39277 c -0.552676,0 -1.001031,0.08559 -1.001031,0.696594 0,0.611002 0.448355,1.105905 1.001031,1.105905 h 1.18398 l 0.879066,2.590615 c -0.975718,0.169064 -1.615841,0.863538 -1.930342,1.240648 -1.189732,-0.874132 -2.618024,-1.383865 -4.154474,-1.383865 -2.121343,0 -4.036729,0.971163 -5.403655,2.531718 0.03107,0.06779 0.06443,0.139403 0.100871,0.213978 -1.246112,1.450392 -2.013187,3.4067 -2.013187,5.558767 0,4.457942 3.282695,8.083701 7.317122,8.083701 3.842658,0 7.000319,-3.28975 7.292958,-7.452361 l 0.584895,0.02966 c -0.01304,0.109743 -0.02186,0.220757 -0.02186,0.33389 0,0.829641 0.359758,1.563945 0.914737,2.030459 l -0.555746,1.240648 H 45.08628 c -0.259654,0 -0.470216,0.232621 -0.470216,0.519902 0,0.287281 0.210178,0.519056 0.470216,0.519056 h 1.490426 c 0.259654,0 0.470216,-0.231775 0.470216,-0.519056 0,-0.287281 -0.210562,-0.519902 -0.470216,-0.519902 h -0.202124 l 0.382002,-0.852098 c 0.230123,0.08517 0.475203,0.1322 0.73179,0.1322 1.275644,0 2.309276,-1.142345 2.309276,-2.551209 0,-0.280078 -0.04142,-0.548291 -0.117362,-0.79998 1.013689,-0.4466 2.16315,-1.239377 3.062161,-2.655444 0.0088,-0.0144 0.01726,-0.02881 0.02532,-0.04364 l 3.533527,-6.085445 0.07441,0.258469 c 0.14421,0.495327 0.559965,0.810149 1.006785,0.810149 0.107391,0 0.216699,-0.01822 0.32524,-0.05678 0.105089,-0.03729 0.196755,-0.09576 0.282283,-0.162708 l 0.101254,0.344907 c -2.568548,1.256325 -4.365804,4.097358 -4.365804,7.394735 0,4.457942 3.281928,8.083701 7.316355,8.083701 4.034427,0 7.316739,-3.626183 7.316739,-8.083701 3.83e-4,-4.455824 -3.281545,-8.082007 -7.315971,-8.082007 z m -17.297142,0.925825 1.813747,5.34648 -0.912051,-0.04661 c -0.36321,-1.753771 -1.22732,-3.296106 -2.418969,-4.431672 0.288036,-0.333466 0.793921,-0.823709 1.517273,-0.868199 z m -6.42348,13.858984 c -3.344444,0 -6.065257,-3.006706 -6.065257,-6.700684 0,-1.66818 0.555746,-3.19399 1.471249,-4.368114 0.629385,0.863115 1.551024,1.696145 2.804807,1.806312 1.608554,0.142369 2.149725,0.216096 2.473815,0.261011 -0.03184,0.04364 -0.06252,0.08474 -0.09282,0.124573 -0.513556,0.09195 -0.919339,0.572868 -0.944269,1.171157 -0.02877,0.686001 0.451807,1.26819 1.072753,1.299545 l 5.322345,0.272875 c -0.261956,3.430001 -2.871159,6.133325 -6.042627,6.133325 z m 23.720622,0 c -3.344828,0 -6.066024,-3.006706 -6.066024,-6.700684 0,-2.682561 1.435579,-5.001149 3.50131,-6.071038 l 1.89314,6.486282 c 0.09703,0.3305 0.374332,0.540241 0.671957,0.540241 0.07134,0 0.14421,-0.01186 0.215931,-0.03814 0.370114,-0.131777 0.574155,-0.570325 0.454492,-0.979637 l -1.897359,-6.501536 c 0.396194,-0.09068 0.806579,-0.138133 1.226169,-0.138133 3.344827,0 6.065256,3.006707 6.065256,6.701532 0,3.694401 -2.720046,6.701108 -6.064872,6.701108 z" /><path
     sodipodi:open="true"
     transform="matrix(1.9587113,0,0,1.6185073,-18.552974,-6.3898866)"
     sodipodi:end="6.267431"
     sodipodi:start="0.058359796"
     d="M 46.759479,26.211518 C 46.366272,33.543074 40.591777,39.139225 33.861784,38.710871 27.131792,38.282516 21.994812,31.991865 22.38802,24.660309 c 0.393207,-7.331557 6.167702,-12.927708 12.897695,-12.499353 6.379943,0.406074 11.392351,6.104265 11.49303,13.065471"
     sodipodi:ry="13.297596"
     sodipodi:rx="12.206511"
     sodipodi:cy="25.435913"
     sodipodi:cx="34.57375"
     id="path5196"
     style="fill:none;stroke:#1f8dd6;stroke-width:1.72479987000000001;stroke-linecap:square;stroke-miterlimit:0.60000001999999997;stroke-opacity:1;stroke-dasharray:none;marker-start:none;marker-end:none;fill-opacity:1"
     sodipodi:type="arc" /></g></svg>